<svg width="26" height="24" viewBox="0 0 26 24" fill="none" xmlns="http://www.w3.org/2000/svg">
<path d="M25.643 17.5194C26.119 18.0215 26.119 18.8356 25.643 19.3377L21.5805 23.6225C20.8183 24.4267 19.5 23.8631 19.5 22.7134V20.5714H16.5148C16.4312 20.5714 16.3486 20.5533 16.2719 20.5182C16.1953 20.483 16.1263 20.4317 16.0693 20.3672L12.4864 16.3174L15.1947 13.2562L17.875 16.2857H19.5V14.1439C19.5 12.9954 20.8174 12.4297 21.5805 13.2347L25.643 17.5194ZM0.609374 7.71429H4.87499L7.55527 10.7438L10.2636 7.68257L6.68067 3.63278C6.62365 3.56834 6.55468 3.51695 6.47804 3.48182C6.4014 3.44669 6.31873 3.42856 6.23517 3.42857H0.609374C0.272847 3.42857 0 3.71641 0 4.07143V7.07143C0 7.42645 0.272847 7.71429 0.609374 7.71429ZM19.5 7.71429V9.85629C19.5 11.0059 20.8183 11.5695 21.5805 10.7655L25.643 6.48059C26.119 5.97846 26.119 5.16439 25.643 4.66232L21.5805 0.377622C20.8174 -0.427449 19.5 0.138319 19.5 1.28673V3.42857H16.5148C16.4312 3.42858 16.3486 3.44671 16.2719 3.48184C16.1953 3.51697 16.1263 3.56835 16.0693 3.63278L4.87499 16.2857H0.609374C0.272847 16.2857 0 16.5736 0 16.9286V19.9286C0 20.2836 0.272847 20.5714 0.609374 20.5714H6.23517C6.40407 20.5714 6.5654 20.4975 6.68067 20.3672L17.875 7.71429H19.5Z" fill="white"/>
</svg>
